<?xml version="1.0" encoding="UTF-8" standalone="no"?>
<svg
   xmlns:dc="http://purl.org/dc/elements/1.1/"
   xmlns:cc="http://creativecommons.org/ns#"
   xmlns:rdf="http://www.w3.org/1999/02/22-rdf-syntax-ns#"
   xmlns:svg="http://www.w3.org/2000/svg"
   xmlns="http://www.w3.org/2000/svg"
   xmlns:xlink="http://www.w3.org/1999/xlink"
   xmlns:sodipodi="http://sodipodi.sourceforge.net/DTD/sodipodi-0.dtd"
   xmlns:inkscape="http://www.inkscape.org/namespaces/inkscape"
   width="500"
   height="500"
   viewBox="0 0 132.29166 132.29167"
   version="1.1"
   id="svg8"
   inkscape:version="1.0 (5b275a35d9, 2020-05-03)"
   sodipodi:docname="adn-cycles.svg">
  <defs
     id="defs2">
    <linearGradient
       id="linearGradient1077"
       inkscape:collect="always">
      <stop
         id="stop1073"
         offset="0"
         style="stop-color:#666666;stop-opacity:1;" />
      <stop
         id="stop1075"
         offset="1"
         style="stop-color:#666666;stop-opacity:0;" />
    </linearGradient>
    <rect
       id="rect1064"
       height="123.1212"
       width="135.64897"
       y="10.0158"
       x="-9.1337794" />
    <linearGradient
       inkscape:collect="always"
       id="linearGradient1216">
      <stop
         style="stop-color:#000000;stop-opacity:1;"
         offset="0"
         id="stop1212" />
      <stop
         style="stop-color:#000000;stop-opacity:0;"
         offset="1"
         id="stop1214" />
    </linearGradient>
    <linearGradient
       inkscape:collect="always"
       id="linearGradient1200">
      <stop
         style="stop-color:#000000;stop-opacity:1;"
         offset="0"
         id="stop1196" />
      <stop
         style="stop-color:#000000;stop-opacity:0"
         offset="1"
         id="stop1198" />
    </linearGradient>
    <inkscape:path-effect
       effect="skeletal"
       id="path-effect1172"
       is_visible="true"
       lpeversion="1"
       pattern="#path1167"
       copytype="repeated_stretched"
       prop_scale="1"
       scale_y_rel="false"
       spacing="0"
       normal_offset="0"
       tang_offset="0"
       prop_units="false"
       vertical_pattern="false"
       hide_knot="false"
       fuse_tolerance="0" />
    <linearGradient
       inkscape:collect="always"
       id="linearGradient1163">
      <stop
         style="stop-color:#333333;stop-opacity:1;"
         offset="0"
         id="stop1159" />
      <stop
         style="stop-color:#4d4d4d;stop-opacity:1"
         offset="1"
         id="stop1161" />
    </linearGradient>
    <linearGradient
       inkscape:collect="always"
       id="linearGradient1142">
      <stop
         style="stop-color:#c87137;stop-opacity:1;"
         offset="0"
         id="stop1138" />
      <stop
         style="stop-color:#dda682;stop-opacity:1"
         offset="1"
         id="stop1140" />
    </linearGradient>
    <linearGradient
       inkscape:collect="always"
       id="linearGradient1118">
      <stop
         style="stop-color:#666666;stop-opacity:1;"
         offset="0"
         id="stop1114" />
      <stop
         style="stop-color:#999999;stop-opacity:1"
         offset="1"
         id="stop1116" />
    </linearGradient>
    <linearGradient
       gradientTransform="matrix(0.94054638,0,0,0.94054638,4.0036999,4.3598947)"
       inkscape:collect="always"
       xlink:href="#linearGradient1118"
       id="linearGradient1120"
       x1="66.753296"
       y1="19.52281"
       x2="63.172417"
       y2="119.38436"
       gradientUnits="userSpaceOnUse" />
    <linearGradient
       gradientTransform="matrix(0.94054638,0,0,0.94054638,4.0036999,4.3598947)"
       inkscape:collect="always"
       xlink:href="#linearGradient1118"
       id="linearGradient1128"
       x1="47.414738"
       y1="67.844444"
       x2="83.97261"
       y2="67.844444"
       gradientUnits="userSpaceOnUse" />
    <linearGradient
       gradientTransform="matrix(0.94054638,0,0,0.94054638,4.0036999,4.3598947)"
       inkscape:collect="always"
       xlink:href="#linearGradient1118"
       id="linearGradient1136"
       x1="80.97036"
       y1="22.233801"
       x2="80.578148"
       y2="112.82877"
       gradientUnits="userSpaceOnUse" />
    <linearGradient
       inkscape:collect="always"
       xlink:href="#linearGradient1142"
       id="linearGradient1144"
       x1="64.081169"
       y1="16.323248"
       x2="64.081169"
       y2="121.52152"
       gradientUnits="userSpaceOnUse" />
    <linearGradient
       inkscape:collect="always"
       xlink:href="#linearGradient1163"
       id="linearGradient1165"
       x1="64.603264"
       y1="13.178761"
       x2="66.327026"
       y2="122.98433"
       gradientUnits="userSpaceOnUse"
       gradientTransform="matrix(0.94054638,0,0,0.94054638,4.3167325,4.3598947)" />
    <linearGradient
       inkscape:collect="always"
       xlink:href="#linearGradient1163"
       id="linearGradient1194"
       x1="66.098785"
       y1="13.317772"
       x2="64.211517"
       y2="123.82481"
       gradientUnits="userSpaceOnUse"
       gradientTransform="matrix(0.9358143,0,0,0.93462226,4.3407333,4.6945028)" />
    <linearGradient
       inkscape:collect="always"
       xlink:href="#linearGradient1200"
       id="linearGradient1202"
       x1="16.29604"
       y1="73.485443"
       x2="46.922855"
       y2="72.741158"
       gradientUnits="userSpaceOnUse" />
    <linearGradient
       inkscape:collect="always"
       xlink:href="#linearGradient1200"
       id="linearGradient1210"
       x1="16.29604"
       y1="73.485443"
       x2="46.922855"
       y2="72.741158"
       gradientUnits="userSpaceOnUse" />
    <linearGradient
       inkscape:collect="always"
       xlink:href="#linearGradient1216"
       id="linearGradient1218"
       x1="102.29391"
       y1="72.798615"
       x2="74.226395"
       y2="73.377792"
       gradientUnits="userSpaceOnUse" />
    <linearGradient
       inkscape:collect="always"
       xlink:href="#linearGradient1163"
       id="linearGradient1225"
       gradientUnits="userSpaceOnUse"
       x1="34.198109"
       y1="72.99044"
       x2="46.922855"
       y2="72.741158" />
    <linearGradient
       inkscape:collect="always"
       xlink:href="#linearGradient1200"
       id="linearGradient1227"
       gradientUnits="userSpaceOnUse"
       x1="34.198109"
       y1="72.99044"
       x2="46.922855"
       y2="72.741158" />
    <linearGradient
       y2="73.377792"
       x2="74.226395"
       y1="72.798615"
       x1="102.29391"
       gradientUnits="userSpaceOnUse"
       id="linearGradient921"
       xlink:href="#linearGradient1216"
       inkscape:collect="always" />
    <linearGradient
       y2="73.377792"
       x2="74.226395"
       y1="72.798615"
       x1="102.29391"
       gradientUnits="userSpaceOnUse"
       id="linearGradient923"
       xlink:href="#linearGradient1216"
       inkscape:collect="always" />
    <linearGradient
       y2="73.377792"
       x2="74.226395"
       y1="72.798615"
       x1="102.29391"
       gradientUnits="userSpaceOnUse"
       id="linearGradient925"
       xlink:href="#linearGradient1216"
       inkscape:collect="always" />
    <linearGradient
       y2="72.741158"
       x2="46.922855"
       y1="73.485443"
       x1="16.29604"
       gradientUnits="userSpaceOnUse"
       id="linearGradient939"
       xlink:href="#linearGradient1200"
       inkscape:collect="always" />
    <linearGradient
       y2="72.741158"
       x2="46.922855"
       y1="73.485443"
       x1="16.29604"
       gradientUnits="userSpaceOnUse"
       id="linearGradient941"
       xlink:href="#linearGradient1200"
       inkscape:collect="always" />
    <linearGradient
       y2="72.741158"
       x2="46.922855"
       y1="73.485443"
       x1="16.29604"
       gradientUnits="userSpaceOnUse"
       id="linearGradient943"
       xlink:href="#linearGradient1200"
       inkscape:collect="always" />
    <linearGradient
       y2="72.741158"
       x2="46.922855"
       y1="73.485443"
       x1="16.29604"
       gradientUnits="userSpaceOnUse"
       id="linearGradient945"
       xlink:href="#linearGradient1200"
       inkscape:collect="always" />
    <linearGradient
       y2="72.741158"
       x2="46.922855"
       y1="73.485443"
       x1="16.29604"
       gradientUnits="userSpaceOnUse"
       id="linearGradient947"
       xlink:href="#linearGradient1200"
       inkscape:collect="always" />
    <linearGradient
       y2="72.741158"
       x2="46.922855"
       y1="73.485443"
       x1="16.29604"
       gradientUnits="userSpaceOnUse"
       id="linearGradient949"
       xlink:href="#linearGradient1200"
       inkscape:collect="always" />
    <linearGradient
       gradientTransform="matrix(0.94054638,0,0,0.94054638,4.0036999,4.3598947)"
       y2="121.52152"
       x2="64.081169"
       y1="16.323248"
       x1="64.081169"
       gradientUnits="userSpaceOnUse"
       id="linearGradient1042"
       xlink:href="#linearGradient1142"
       inkscape:collect="always" />
    <linearGradient
       gradientUnits="userSpaceOnUse"
       y2="126.27083"
       x2="109.86038"
       y1="126.27083"
       x1="11.98758"
       id="linearGradient1079"
       xlink:href="#linearGradient1077"
       inkscape:collect="always" />
  </defs>
  <sodipodi:namedview
     inkscape:window-maximized="1"
     inkscape:window-y="27"
     inkscape:window-x="0"
     inkscape:window-height="1016"
     inkscape:window-width="1920"
     showborder="true"
     borderlayer="true"
     inkscape:pagecheckerboard="true"
     units="px"
     showgrid="false"
     inkscape:document-rotation="0"
     inkscape:current-layer="layer1"
     inkscape:document-units="mm"
     inkscape:cy="496.73317"
     inkscape:cx="142.79973"
     inkscape:zoom="2.1411194"
     inkscape:pageshadow="2"
     inkscape:pageopacity="0.0"
     borderopacity="1.0"
     bordercolor="#666666"
     pagecolor="#ffffff"
     id="base"
     inkscape:snap-global="false" />
  <metadata
     id="metadata5">
    <rdf:RDF>
      <cc:Work
         rdf:about="">
        <dc:format>image/svg+xml</dc:format>
        <dc:type
           rdf:resource="http://purl.org/dc/dcmitype/StillImage" />
        <dc:title />
      </cc:Work>
    </rdf:RDF>
  </metadata>
  <g
     inkscape:groupmode="layer"
     id="layer1"
     inkscape:label="Layer 1">
    <g
       id="g1055"
       style="fill:url(#linearGradient1202);fill-opacity:1;stroke:url(#linearGradient1210);stroke-opacity:1"
       transform="matrix(1.0356272,0,0,1.0356272,4.0243677,-14.460572)">
      <g
         transform="translate(-2.8932767,6.4981115)"
         id="g1223"
         style="fill:url(#linearGradient1227);stroke:url(#linearGradient1225)">
        <path
           sodipodi:nodetypes="cc"
           style="font-variation-settings:normal;opacity:1;vector-effect:none;fill:url(#linearGradient939);fill-opacity:1;stroke:url(#linearGradient941);stroke-width:0.565;stroke-linecap:butt;stroke-linejoin:miter;stroke-miterlimit:4;stroke-dasharray:none;stroke-dashoffset:0;stroke-opacity:1;stop-color:#000000;stop-opacity:1"
           d="M 49.592979,72.939219 H 16.296039"
           id="path1046" />
        <path
           id="path1048"
           d="M 44.549545,81.50627 25.589444,97.991007"
           style="font-variation-settings:normal;opacity:1;vector-effect:none;fill:url(#linearGradient943);fill-opacity:1;stroke:url(#linearGradient945);stroke-width:0.565;stroke-linecap:butt;stroke-linejoin:miter;stroke-miterlimit:4;stroke-dasharray:none;stroke-dashoffset:0;stroke-opacity:1;stop-color:#000000;stop-opacity:1"
           sodipodi:nodetypes="cc" />
        <path
           sodipodi:nodetypes="cc"
           style="font-variation-settings:normal;opacity:1;vector-effect:none;fill:url(#linearGradient947);fill-opacity:1;stroke:url(#linearGradient949);stroke-width:0.565;stroke-linecap:butt;stroke-linejoin:miter;stroke-miterlimit:4;stroke-dasharray:none;stroke-dashoffset:0;stroke-opacity:1;stop-color:#000000;stop-opacity:1"
           d="M 42.558625,63.268405 23.869378,48.991177"
           id="path1050" />
      </g>
      <text
         xml:space="preserve"
         style="font-style:normal;font-weight:normal;font-size:15.3787px;line-height:1.25;font-family:sans-serif;letter-spacing:0px;word-spacing:0px;fill:#c9733a;fill-opacity:1;stroke:none;stroke-width:0.312297"
         id="text1231"><textPath
           style="font-size:15.3787px"
           id="textPath951"
           xlink:href="#path900"><tspan
             style="font-style:normal;font-variant:normal;font-weight:normal;font-stretch:normal;font-size:15.3787px;font-family:'Dolce Vita Heavy';-inkscape-font-specification:'Dolce Vita Heavy, Normal';font-variant-ligatures:normal;font-variant-caps:normal;font-variant-numeric:normal;font-variant-east-asian:normal;fill:#c9733a;fill-opacity:1;stroke-width:0.312297"
             id="tspan1229"><tspan
   id="tspan999"
   style="font-size:15.3787px;fill:#27bcc4;fill-opacity:1">ADN</tspan> </tspan><tspan
             style="font-style:normal;font-variant:normal;font-weight:normal;font-stretch:normal;font-size:15.3787px;font-family:'Dolce Vita Light';-inkscape-font-specification:'Dolce Vita Light, Normal';font-variant-ligatures:normal;font-variant-caps:normal;font-variant-numeric:normal;font-variant-east-asian:normal;fill:#1a1a1a;fill-opacity:1;stroke-width:0.312297"
             id="tspan997">Cycles</tspan></textPath></text>
      <circle
         transform="rotate(-130.15028)"
         r="53.463234"
         cy="-5.957531"
         cx="-99.5298"
         id="path900"
         style="fill:none;fill-opacity:1;stroke:none;stroke-width:0.443323;stroke-linecap:round;stroke-linejoin:round;paint-order:stroke fill markers" />
      <text
         style="font-style:normal;font-weight:normal;font-size:9.61168px;line-height:1.25;font-family:sans-serif;letter-spacing:0px;word-spacing:0px;white-space:pre;shape-inside:url(#rect1064);fill:#000000;fill-opacity:1;stroke:none;"
         id="text1062"
         xml:space="preserve" />
    </g>
    <path
       sodipodi:nodetypes="cccccscc"
       id="path936-7"
       d="m -145.02269,49.068346 c 0.22871,16.453798 -2.26456,33.517243 15.08981,41.676059 17.21136,8.962556 13.5177,20.974825 12.45202,38.772735 l 6.34815,0.0279 c 0.81676,-22.93092 -2.53271,-31.781628 -18.23272,-41.029107 -14.03271,-9.797695 -11.21324,-23.637871 -10.36596,-35.738777 l 0.25668,-3.665944 z"
       style="font-variation-settings:normal;opacity:1;vector-effect:none;fill:#000000;fill-opacity:1;stroke:none;stroke-width:0.264999;stroke-linecap:butt;stroke-linejoin:miter;stroke-miterlimit:4;stroke-dasharray:none;stroke-dashoffset:0;stroke-opacity:1;stop-color:#000000;stop-opacity:1" />
    <path
       sodipodi:nodetypes="ccccccccccccc"
       d="m -111.02975,49.068202 -5.54799,0.04289 0.25684,3.665926 c 0.84727,12.100906 4.63472,25.419134 -9.398,35.216832 -0.45759,0.269528 -0.90264,0.538491 -1.33945,0.807701 0.72219,0.445098 1.41001,0.891069 2.07687,1.337903 17.16537,-8.1906 13.72378,-24.672165 13.95173,-41.071254 z m -19.81417,42.483812 c -12.76835,8.555556 -14.82935,16.835446 -14.07576,37.992926 l 6.34845,-0.0279 c -1.02432,-17.10735 -5.21413,-27.97828 9.80418,-36.824521 -0.60617,-0.35705 -1.23912,-0.710104 -1.90686,-1.057817 -0.0577,-0.02713 -0.11275,-0.05536 -0.17001,-0.08268 z"
       style="font-variation-settings:normal;opacity:1;vector-effect:none;fill:#000000;fill-opacity:1;stroke:none;stroke-width:0.264999;stroke-linecap:butt;stroke-linejoin:miter;stroke-miterlimit:4;stroke-dasharray:none;stroke-dashoffset:0;stroke-opacity:1;stop-color:#000000;stop-opacity:1"
       id="path938-5" />
    <path
       sodipodi:nodetypes="cccccc"
       id="path943-35"
       d="m -138.9479,60.340654 21.6205,-5.75436 v -1.91739 l -21.56807,5.779145 c 0.0291,-0.209638 -0.0536,1.331049 -0.0524,1.892605 z"
       style="font-variation-settings:normal;opacity:1;vector-effect:none;fill:#000000;fill-opacity:1;stroke:#000000;stroke-width:0.264999;stroke-linecap:butt;stroke-linejoin:miter;stroke-miterlimit:4;stroke-dasharray:none;stroke-dashoffset:0;stroke-opacity:1;stop-color:#000000;stop-opacity:1" />
    <path
       style="font-variation-settings:normal;opacity:1;vector-effect:none;fill:#000000;fill-opacity:1;stroke:#000000;stroke-width:0.264999;stroke-linecap:butt;stroke-linejoin:miter;stroke-miterlimit:4;stroke-dasharray:none;stroke-dashoffset:0;stroke-opacity:1;stop-color:#000000;stop-opacity:1"
       d="m -117.3274,65.908154 v -1.91739 l -21.56807,5.779145 c 0.0198,-0.208831 0.23979,1.356325 0.53364,1.892605 3.71989,-1.30205 15.04795,-4.161039 21.03443,-5.75436 z"
       id="path943-3-6"
       sodipodi:nodetypes="ccccc" />
    <path
       style="font-variation-settings:normal;opacity:1;vector-effect:none;fill:#000000;fill-opacity:1;stroke:#000000;stroke-width:0.264999;stroke-linecap:butt;stroke-linejoin:miter;stroke-miterlimit:4;stroke-dasharray:none;stroke-dashoffset:0;stroke-opacity:1;stop-color:#000000;stop-opacity:1"
       d="m -134.10302,82.984369 15.83222,-5.477862 1.06899,-2.193888 -18.16383,6.062027 c -0.21921,-0.06913 0.92929,1.236123 1.26263,1.609723 z"
       id="path943-6-2"
       sodipodi:nodetypes="cccccc" />
    <path
       style="font-variation-settings:normal;opacity:1;vector-effect:none;fill:#000000;fill-opacity:1;stroke:#000000;stroke-width:0.264999;stroke-linecap:butt;stroke-linejoin:miter;stroke-miterlimit:4;stroke-dasharray:none;stroke-dashoffset:0;stroke-opacity:1;stop-color:#000000;stop-opacity:1"
       d="m -118.18596,120.60642 -19.47108,5.75436 0.27373,1.89848 18.96791,-5.76023 c -0.0291,0.20964 0.23061,-1.33105 0.22944,-1.89261 z"
       id="path966-9"
       sodipodi:nodetypes="cccccc" />
    <path
       sodipodi:nodetypes="ccccc"
       id="path968-1"
       d="m -138.48187,115.03893 0.15582,1.9283 20.84345,-5.63728 -0.0786,-2.04538 c -3.71988,1.30205 -14.93416,4.16104 -20.92065,5.75436 z"
       style="font-variation-settings:normal;opacity:1;vector-effect:none;fill:#000000;fill-opacity:1;stroke:#000000;stroke-width:0.264999;stroke-linecap:butt;stroke-linejoin:miter;stroke-miterlimit:4;stroke-dasharray:none;stroke-dashoffset:0;stroke-opacity:1;stop-color:#000000;stop-opacity:1" />
    <path
       sodipodi:nodetypes="cccccc"
       id="path970-2"
       d="m -121.70625,97.962709 -15.83222,5.477871 c -0.31349,0.59638 -0.64513,1.64097 -0.75609,2.53493 l 17.85093,-6.403071 c -0.36587,-0.529389 -0.74199,-1.060119 -1.26262,-1.60973 z"
       style="font-variation-settings:normal;opacity:1;vector-effect:none;fill:#000000;fill-opacity:1;stroke:#000000;stroke-width:0.264999;stroke-linecap:butt;stroke-linejoin:miter;stroke-miterlimit:4;stroke-dasharray:none;stroke-dashoffset:0;stroke-opacity:1;stop-color:#000000;stop-opacity:1" />
    <circle
       r="42.797123"
       cy="89.476006"
       cx="-128.27223"
       id="path972-7"
       style="fill:none;stroke:#000000;stroke-width:3.48268;stroke-linecap:round;stroke-linejoin:round;stroke-miterlimit:4;stroke-dasharray:none;paint-order:stroke fill markers" />
    <path
       style="font-variation-settings:normal;opacity:1;vector-effect:none;fill:#414141;fill-opacity:1;stroke:#000000;stroke-width:0.0443085;stroke-linecap:butt;stroke-linejoin:miter;stroke-miterlimit:4;stroke-dasharray:none;stroke-dashoffset:0;stroke-opacity:1;stop-color:#000000;stop-opacity:1"
       d="m -31.382818,64.707361 0.492547,-0.350867 h 1.15976 l 0.169113,0.158255 h 0.634715 l 0.162314,-0.164283 0.938724,9.23e-4 0.587952,0.545261 h -4.308887 z"
       id="path1167"
       sodipodi:nodetypes="cccccccccc" />
    <path
       style="font-variation-settings:normal;vector-effect:none;fill:url(#linearGradient1128);fill-opacity:1;stroke:none;stroke-width:0.267893;stroke-linecap:butt;stroke-linejoin:miter;stroke-miterlimit:4;stroke-dasharray:none;stroke-dashoffset:0;stroke-opacity:1;stop-color:#000000"
       d="m 48.609227,24.684724 c 0.231204,16.63347 -2.289286,36.720563 15.254588,44.968472 17.399303,9.060423 13.665304,23.983085 12.58799,41.975344 l 6.417472,0.0282 C 83.694958,88.475417 80.308905,76.748845 64.437461,67.400389 50.25151,57.495704 53.101771,43.504397 53.958302,31.271352 l 0.259483,-6.543293 z"
       id="path936"
       sodipodi:nodetypes="cccccscc" />
    <path
       id="path938"
       style="font-variation-settings:normal;vector-effect:none;fill:url(#linearGradient1136);fill-opacity:1;stroke:none;stroke-width:0.267893;stroke-linecap:butt;stroke-linejoin:miter;stroke-miterlimit:4;stroke-dasharray:none;stroke-dashoffset:0;stroke-opacity:1;stop-color:#000000"
       d="m 82.973357,24.538983 -5.608567,0.04336 0.259639,6.688872 c 0.856529,12.233046 4.685329,25.696706 -9.500622,35.601392 -0.462589,0.272472 -0.912496,0.54437 -1.35408,0.816521 0.730083,0.449958 1.425412,0.900799 2.099555,1.352513 C 86.222092,60.7616 82.742919,41.117145 82.973357,24.538981 Z M 62.942822,70.469624 C 50.035047,79.118607 47.95154,90.191134 48.713364,111.57965 l 6.417774,0.27144 c -1.035513,-17.294156 -5.27107,-31.285671 9.911238,-40.228513 -0.612795,-0.360949 -1.25266,-0.71786 -1.927682,-1.06937 -0.05833,-0.02742 -0.113981,-0.05597 -0.171872,-0.08358 z"
       sodipodi:nodetypes="ccccccccccccc" />
    <path
       style="font-variation-settings:normal;vector-effect:none;fill:#27bcc4;fill-opacity:1;stroke:none;stroke-width:0.267893;stroke-linecap:butt;stroke-linejoin:miter;stroke-miterlimit:4;stroke-dasharray:none;stroke-dashoffset:0;stroke-opacity:1;stop-color:#000000"
       d="M 54.75035,38.917442 76.606944,33.100245 V 31.161919 L 54.803357,37.00417 c 0.02943,-0.211927 -0.05418,1.345584 -0.053,1.913272 z"
       id="path943"
       sodipodi:nodetypes="cccccc" />
    <path
       sodipodi:nodetypes="ccccc"
       id="path943-3"
       d="m 76.606944,44.545738 v -1.938327 l -21.803587,5.842252 c 0.01999,-0.211112 0.242407,1.371135 0.539466,1.913272 3.760503,-1.316269 15.212265,-4.206478 21.264121,-5.817197 z"
       style="font-variation-settings:normal;vector-effect:none;fill:#27bcc4;fill-opacity:1;stroke:none;stroke-width:0.267893;stroke-linecap:butt;stroke-linejoin:miter;stroke-miterlimit:4;stroke-dasharray:none;stroke-dashoffset:0;stroke-opacity:1;stop-color:#000000" />
    <path
       sodipodi:nodetypes="cccccc"
       id="path943-6"
       d="m 59.648137,61.808421 16.0051,-5.537679 1.080664,-2.217845 -18.362171,6.128222 c -0.221601,-0.06989 0.939438,1.249623 1.276411,1.627302 z"
       style="font-variation-settings:normal;vector-effect:none;fill:#27bcc4;fill-opacity:1;stroke:none;stroke-width:0.267893;stroke-linecap:butt;stroke-linejoin:miter;stroke-miterlimit:4;stroke-dasharray:none;stroke-dashoffset:0;stroke-opacity:1;stop-color:#000000" />
    <path
       sodipodi:nodetypes="cccccc"
       id="path966"
       d="m 75.739009,99.841305 -19.683704,5.817185 0.276726,1.91922 19.175029,-5.82313 c -0.02943,0.21193 0.233127,-1.34559 0.231945,-1.913275 z"
       style="font-variation-settings:normal;vector-effect:none;fill:#27bcc4;fill-opacity:1;stroke:none;stroke-width:0.267893;stroke-linecap:butt;stroke-linejoin:miter;stroke-miterlimit:4;stroke-dasharray:none;stroke-dashoffset:0;stroke-opacity:1;stop-color:#000000" />
    <path
       style="font-variation-settings:normal;vector-effect:none;fill:#27bcc4;fill-opacity:1;stroke:none;stroke-width:0.267893;stroke-linecap:butt;stroke-linejoin:miter;stroke-miterlimit:4;stroke-dasharray:none;stroke-dashoffset:0;stroke-opacity:1;stop-color:#000000"
       d="m 55.221469,94.21301 0.157524,1.949358 21.071057,-5.698841 -0.07948,-2.067715 C 72.610067,89.71208 61.273324,92.602291 55.221467,94.21301 Z"
       id="path968"
       sodipodi:nodetypes="ccccc" />
    <path
       style="font-variation-settings:normal;vector-effect:none;fill:#27bcc4;fill-opacity:1;stroke:none;stroke-width:0.267893;stroke-linecap:butt;stroke-linejoin:miter;stroke-miterlimit:4;stroke-dasharray:none;stroke-dashoffset:0;stroke-opacity:1;stop-color:#000000"
       d="m 72.180276,76.95032 -16.0051,5.537686 c -0.316915,0.602897 -0.652183,1.658896 -0.764354,2.562619 l 18.04586,-6.472997 c -0.369865,-0.53517 -0.750089,-1.071694 -1.276411,-1.627308 z"
       id="path970"
       sodipodi:nodetypes="cccccc" />
    <g
       id="g1060"
       transform="matrix(1.0109198,0,0,1.0109198,4.7919743,-5.941267)"
       style="stroke:url(#linearGradient1218);stroke-opacity:1">
      <path
         sodipodi:nodetypes="cc"
         style="font-variation-settings:normal;opacity:1;vector-effect:none;fill:#4d4d4d;fill-opacity:1;stroke:url(#linearGradient921);stroke-width:0.565;stroke-linecap:butt;stroke-linejoin:miter;stroke-miterlimit:4;stroke-dasharray:none;stroke-dashoffset:0;stroke-opacity:1;stop-color:#000000;stop-opacity:1"
         d="m 70.19699,73.536962 h 32.69453"
         id="path1036" />
      <path
         id="path1040"
         d="M 74.63801,82.104013 93.598115,98.58875"
         style="font-variation-settings:normal;opacity:1;vector-effect:none;fill:#4d4d4d;fill-opacity:1;stroke:url(#linearGradient923);stroke-width:0.565;stroke-linecap:butt;stroke-linejoin:miter;stroke-miterlimit:4;stroke-dasharray:none;stroke-dashoffset:0;stroke-opacity:1;stop-color:#000000;stop-opacity:1"
         sodipodi:nodetypes="cc" />
      <path
         sodipodi:nodetypes="cc"
         style="font-variation-settings:normal;opacity:1;vector-effect:none;fill:#4d4d4d;fill-opacity:1;stroke:url(#linearGradient925);stroke-width:0.565;stroke-linecap:butt;stroke-linejoin:miter;stroke-miterlimit:4;stroke-dasharray:none;stroke-dashoffset:0;stroke-opacity:1;stop-color:#000000;stop-opacity:1"
         d="M 76.628937,63.866148 95.318181,49.58892"
         id="path1044" />
    </g>
    <path
       id="rect1020"
       style="fill:#333333;fill-opacity:1;stroke:none;stroke-width:3.87645;stroke-linecap:round;stroke-linejoin:round;stroke-miterlimit:4;stroke-dasharray:none;paint-order:stroke fill markers"
       d="m 30.584588,79.561329 c -0.202714,-0.561356 -0.818219,-0.850265 -1.379575,-0.647552 l -0.149699,0.05406 -0.661407,0.238845 -1.013138,0.365857 0.136152,0.377029 -1.864988,0.673474 0.459566,1.272638 1.864988,-0.673474 0.136151,0.377029 1.013137,-0.365856 0.661408,-0.238845 0.149697,-0.05406 c 0.561358,-0.202714 0.850421,-0.817787 0.647708,-1.379146 z" />
    <path
       id="path1083"
       style="color:#000000;font-style:normal;font-variant:normal;font-weight:normal;font-stretch:normal;font-size:medium;line-height:normal;font-family:sans-serif;font-variant-ligatures:normal;font-variant-position:normal;font-variant-caps:normal;font-variant-numeric:normal;font-variant-alternates:normal;font-variant-east-asian:normal;font-feature-settings:normal;font-variation-settings:normal;text-indent:0;text-align:start;text-decoration:none;text-decoration-line:none;text-decoration-style:solid;text-decoration-color:#000000;letter-spacing:normal;word-spacing:normal;text-transform:none;writing-mode:lr-tb;direction:ltr;text-orientation:mixed;dominant-baseline:auto;baseline-shift:baseline;text-anchor:start;white-space:normal;shape-padding:0;shape-margin:0;inline-size:0;clip-rule:nonzero;display:inline;overflow:visible;visibility:visible;isolation:auto;mix-blend-mode:normal;color-interpolation:sRGB;color-interpolation-filters:linearRGB;solid-color:#000000;solid-opacity:1;vector-effect:none;fill:url(#linearGradient1120);fill-opacity:1;fill-rule:nonzero;stroke:none;stroke-width:3.52071;stroke-linecap:round;stroke-linejoin:round;stroke-miterlimit:4;stroke-dasharray:none;stroke-dashoffset:0;stroke-opacity:1;paint-order:stroke fill markers;color-rendering:auto;image-rendering:auto;shape-rendering:auto;text-rendering:auto;enable-background:accumulate;stop-color:#000000"
       d="m 48.769261,27.060803 c -16.451082,6.705793 -28.234696,22.864825 -28.234696,41.711608 -2e-6,18.846731 11.87657,35.095539 28.327643,41.801319 V 106.7591 C 34.38913,100.28105 24.055065,85.671102 24.055068,68.772411 c 0,-16.898628 10.241252,-31.419288 24.714193,-37.898035 z m 34.116794,0.114636 v 3.330869 c 0.0028,0.170262 0.0048,0.339319 0.0079,0.509869 14.200426,6.588692 24.169075,21.056097 24.169075,37.756234 0,16.702978 -10.110878,31.079584 -24.315271,37.666079 v 5.3e-4 l -0.03082,0.99885 c -0.0087,0.93968 -0.02333,1.89248 -0.04962,2.87427 16.229654,-6.80773 27.916221,-22.853196 27.916221,-41.539729 0,-18.655633 -11.510562,-34.76991 -27.697409,-41.596972 z m -0.218811,83.136701 c -0.0074,0.003 -0.01504,0.006 -0.02246,0.009 l 0.01776,0.14783 c 0.0014,-0.0517 0.0033,-0.10498 0.0048,-0.15672 z M 82.89389,31.016177 c -0.0027,-5.92e-4 -0.0051,-9.4e-4 -0.0079,-0.0016 l 0.132598,12.768451 c 0.203738,-4.160714 -0.04861,-8.548993 -0.124746,-12.766869 z M 48.862208,104.29283 c -0.003,0.53826 -0.0031,1.08414 0,1.63773 z"
       sodipodi:nodetypes="csccscccccsccccsccccccccccccccc" />
    <path
       style="color:#000000;font-style:normal;font-variant:normal;font-weight:normal;font-stretch:normal;font-size:medium;line-height:normal;font-family:sans-serif;font-variant-ligatures:normal;font-variant-position:normal;font-variant-caps:normal;font-variant-numeric:normal;font-variant-alternates:normal;font-variant-east-asian:normal;font-feature-settings:normal;font-variation-settings:normal;text-indent:0;text-align:start;text-decoration:none;text-decoration-line:none;text-decoration-style:solid;text-decoration-color:#000000;letter-spacing:normal;word-spacing:normal;text-transform:none;writing-mode:lr-tb;direction:ltr;text-orientation:mixed;dominant-baseline:auto;baseline-shift:baseline;text-anchor:start;white-space:normal;shape-padding:0;shape-margin:0;inline-size:0;clip-rule:nonzero;display:inline;overflow:visible;visibility:visible;isolation:auto;mix-blend-mode:normal;color-interpolation:sRGB;color-interpolation-filters:linearRGB;solid-color:#000000;solid-opacity:1;vector-effect:none;fill:url(#linearGradient1042);fill-opacity:1;fill-rule:nonzero;stroke:none;stroke-width:3.7802;stroke-linecap:round;stroke-linejoin:round;stroke-miterlimit:4;stroke-dasharray:none;stroke-dashoffset:0;stroke-opacity:1;paint-order:stroke fill markers;color-rendering:auto;image-rendering:auto;shape-rendering:auto;text-rendering:auto;enable-background:accumulate;stop-color:#000000"
       d="m 65.541933,20.026822 c -26.676908,0 -48.342498,21.667564 -48.342498,48.344473 -1e-6,26.676909 21.66559,48.342505 48.342498,48.342505 26.67691,0 48.344477,-21.665596 48.344477,-48.342505 0,-26.676909 -21.667567,-48.344473 -48.344477,-48.344473 z m 0,3.781076 c 24.633936,0 44.563387,19.929461 44.563387,44.563397 0,24.633943 -19.92945,44.563395 -44.563387,44.563395 -24.633936,0 -44.563397,-19.929452 -44.563396,-44.563395 0,-24.633936 19.929461,-44.563397 44.563396,-44.563397 z"
       id="path1108" />
    <path
       style="color:#000000;font-style:normal;font-variant:normal;font-weight:normal;font-stretch:normal;font-size:medium;line-height:normal;font-family:sans-serif;font-variant-ligatures:normal;font-variant-position:normal;font-variant-caps:normal;font-variant-numeric:normal;font-variant-alternates:normal;font-variant-east-asian:normal;font-feature-settings:normal;font-variation-settings:normal;text-indent:0;text-align:start;text-decoration:none;text-decoration-line:none;text-decoration-style:solid;text-decoration-color:#000000;letter-spacing:normal;word-spacing:normal;text-transform:none;writing-mode:lr-tb;direction:ltr;text-orientation:mixed;dominant-baseline:auto;baseline-shift:baseline;text-anchor:start;white-space:normal;shape-padding:0;shape-margin:0;inline-size:0;clip-rule:nonzero;display:inline;overflow:visible;visibility:visible;isolation:auto;mix-blend-mode:normal;color-interpolation:sRGB;color-interpolation-filters:linearRGB;solid-color:#000000;solid-opacity:1;vector-effect:none;fill:url(#linearGradient1165);fill-opacity:1;fill-rule:nonzero;stroke:none;stroke-width:4.06735;stroke-linecap:round;stroke-linejoin:round;stroke-miterlimit:4;stroke-dasharray:none;stroke-dashoffset:0;stroke-opacity:1;paint-order:stroke fill markers;color-rendering:auto;image-rendering:auto;shape-rendering:auto;text-rendering:auto;enable-background:accumulate;stop-color:#000000"
       d="m 65.854966,16.356314 c -28.703319,-1e-6 -52.014982,23.311662 -52.014982,52.014981 -2e-6,28.703314 23.311661,52.014995 52.014982,52.014975 28.703323,2e-5 52.016944,-23.311661 52.016944,-52.014975 0,-28.70332 -23.313623,-52.014983 -52.016944,-52.014981 z m 0,4.067373 c 26.505159,-3e-6 47.949574,21.442449 47.949574,47.947608 0,26.505154 -21.444413,47.947615 -47.949574,47.947615 -26.505159,0 -47.947612,-21.442461 -47.94761,-47.947615 0,-26.505157 21.442452,-47.947609 47.94761,-47.947608 z"
       id="path1112" />
    <path
       id="path1169"
       style="fill:url(#linearGradient1194);fill-opacity:1;stroke:none;stroke-width:0.575963;stroke-linecap:round;stroke-linejoin:round;stroke-miterlimit:4;stroke-dasharray:none;stroke-opacity:1;paint-order:stroke fill markers"
       d="m 117.81286,68.521458 c 0.11642,0.164375 0.23201,0.329887 0.34677,0.496524 -0.005,0.388764 -0.0147,0.777412 -0.0287,1.165856 -0.0547,0.05474 -0.10958,0.1093 -0.16449,0.16368 -0.008,0.211895 -0.018,0.423726 -0.029,0.63548 0.0519,0.05699 0.1036,0.114151 0.15525,0.171479 -0.0176,0.314107 -0.0382,0.628027 -0.0616,0.941713 -0.19562,0.183149 -0.39221,0.364127 -0.58973,0.542935 0.1212,-1.423384 0.18263,-2.851963 0.18253,-4.281245 0.0631,0.05432 0.12611,0.108847 0.18902,0.163578 z m -0.1972,4.296588 c 0.10199,0.173553 0.20311,0.348151 0.30332,0.523782 -0.0379,0.38669 -0.0802,0.772938 -0.12677,1.158658 -0.0591,0.04992 -0.11833,0.09967 -0.1776,0.149225 -0.0261,0.21037 -0.0535,0.42058 -0.0822,0.630614 0.0469,0.06111 0.0937,0.122386 0.14034,0.183815 -0.0438,0.311436 -0.0905,0.622472 -0.13988,0.933061 -0.21016,0.166194 -0.4211,0.330195 -0.63278,0.492002 0.239,-1.408503 0.41998,-2.826693 0.54119,-4.250078 0.0582,0.05945 0.11634,0.119088 0.17435,0.178921 z m -0.55665,4.263936 c 0.0872,0.181417 0.17354,0.363788 0.25888,0.5471 -0.0698,0.382199 -0.14379,0.76363 -0.22198,1.144206 -0.0631,0.04488 -0.12614,0.08958 -0.1893,0.134098 -0.0433,0.207524 -0.0879,0.414788 -0.13375,0.62178 0.0417,0.06476 0.0833,0.129677 0.12479,0.194734 -0.0692,0.306809 -0.14119,0.613004 -0.21586,0.91854 -0.22309,0.148458 -0.44676,0.294698 -0.67099,0.438723 0.35329,-1.384639 0.65032,-2.783456 0.88932,-4.19196 0.0531,0.06408 0.10605,0.128339 0.15889,0.192779 z m -0.90556,4.20433 c 0.0722,0.18797 0.14331,0.376801 0.21345,0.566483 -0.1007,0.375289 -0.2055,0.749485 -0.31437,1.122501 -0.0665,0.03962 -0.13302,0.07905 -0.19959,0.118299 -0.0601,0.203352 -0.12131,0.406349 -0.18378,0.608975 0.0363,0.06794 0.0725,0.136023 0.10861,0.204237 -0.0939,0.300225 -0.1904,0.599624 -0.28955,0.89815 -0.23439,0.129938 -0.46919,0.257637 -0.70435,0.383098 0.46407,-1.351792 0.87363,-2.722253 1.22693,-4.106892 0.0477,0.06821 0.0952,0.136598 0.14265,0.205149 z m -1.24396,4.117776 c 0.0567,0.193209 0.11243,0.387189 0.16704,0.581928 -0.13068,0.365961 -0.26533,0.730503 -0.40392,1.09354 -0.0695,0.03413 -0.13897,0.06808 -0.20849,0.10183 -0.0762,0.197858 -0.15367,0.395263 -0.23226,0.5922 0.0307,0.07065 0.0614,0.141426 0.0918,0.212323 -0.11776,0.291685 -0.23808,0.582331 -0.36094,0.871891 -0.24409,0.110638 -0.48839,0.219013 -0.73288,0.325126 0.57135,-1.309959 1.08994,-2.64308 1.55402,-3.994871 0.042,0.07185 0.0839,0.143866 0.12562,0.216033 z m -1.57182,4.004269 c 0.041,0.197137 0.0809,0.394953 0.11963,0.593436 -0.15972,0.354215 -0.32327,0.706687 -0.49064,1.057327 -0.072,0.02842 -0.14398,0.05665 -0.21598,0.08469 -0.0919,0.191041 -0.18499,0.381531 -0.27919,0.571456 0.0249,0.07289 0.0497,0.145884 0.0744,0.218993 -0.14088,0.281189 -0.28423,0.561125 -0.43004,0.839762 -0.25216,0.09056 -0.50436,0.178825 -0.75655,0.264809 0.67512,-1.259144 1.29922,-2.545942 1.87057,-3.855902 0.0361,0.075 0.072,0.150145 0.10782,0.225431 z m -1.88916,3.863813 c 0.0249,0.199751 0.0487,0.400091 0.0712,0.601007 -0.1878,0.340051 -0.37932,0.678033 -0.57452,1.013859 -0.074,0.02248 -0.14806,0.04478 -0.22207,0.06688 -0.1071,0.182901 -0.21529,0.365152 -0.32457,0.546742 0.0189,0.07465 0.0377,0.149397 0.0563,0.224247 -0.16322,0.268735 -0.32884,0.536005 -0.49683,0.801764 -0.25863,0.06969 -0.5171,0.137072 -0.77538,0.202145 0.77537,-1.199346 1.50149,-2.430837 2.1766,-3.689981 0.0299,0.07765 0.0597,0.155431 0.0892,0.233342 z m -2.19597,3.696406 c 0.009,0.201054 0.0158,0.402604 0.0218,0.604639 -0.21494,0.32347 -0.43347,0.644545 -0.65556,0.963138 -0.0756,0.01632 -0.1512,0.03245 -0.22677,0.04839 -0.12174,0.173436 -0.24454,0.346126 -0.36839,0.518056 0.0127,0.07594 0.0252,0.151967 0.0376,0.228085 -0.18481,0.254326 -0.37192,0.506974 -0.56132,0.757894 -0.26349,0.0481 -0.52662,0.0938 -0.78937,0.13714 0.87211,-1.130565 1.69673,-2.297766 2.4721,-3.497111 0.0235,0.0798 0.0467,0.159726 0.0699,0.239767 z m -2.49226,3.502044 c -0.008,0.20105 -0.0177,0.4025 -0.0285,0.60434 -0.24114,0.30447 -0.48575,0.60622 -0.73378,0.90516 -0.0767,0.01 -0.15341,0.0197 -0.23005,0.0292 -0.13587,0.16265 -0.27276,0.32445 -0.41067,0.4854 0.006,0.0768 0.0124,0.15359 0.0183,0.2305 -0.20562,0.23797 -0.41347,0.47403 -0.62352,0.70817 -0.26671,0.0256 -0.5329,0.0489 -0.79851,0.0698 0.96536,-1.05279 1.88497,-2.14672 2.75709,-3.27728 0.0168,0.0815 0.0333,0.16303 0.0497,0.2447 z m -2.77803,3.28074 c -0.0253,0.19972 -0.0519,0.39976 -0.0799,0.6001 -0.2664,0.28305 -0.53613,0.56305 -0.80916,0.83993 -0.0774,0.003 -0.15468,0.006 -0.23194,0.009 -0.0251,0.0252 -0.0501,0.0504 -0.0753,0.0756 -0.12471,0.12503 -0.25008,0.24938 -0.37609,0.37305 -3.7e-4,0.0771 -9.3e-4,0.1542 -0.002,0.23139 -0.22558,0.21947 -0.4532,0.43678 -0.68282,0.65189 -0.26802,0.002 -0.53524,0.003 -0.80163,3.9e-4 0.54172,-0.49675 1.07254,-1.00564 1.59182,-1.52641 0.48995,-0.49114 0.96932,-0.99249 1.43791,-1.50353 0.01,0.0826 0.0194,0.16535 0.0288,0.24816 z m -3.05132,3.03149 c -0.0425,0.19677 -0.0863,0.3937 -0.13155,0.59078 -0.28983,0.25881 -0.58261,0.51423 -0.878248,0.76624 -0.0773,-0.003 -0.154524,-0.007 -0.231675,-0.0106 -0.161747,0.13696 -0.324347,0.27289 -0.487786,0.4078 -0.007,0.0767 -0.01413,0.15341 -0.02149,0.23019 -0.243332,0.19914 -0.488487,0.39603 -0.73542,0.59064 -0.267062,-0.0204 -0.533178,-0.0431 -0.798326,-0.0678 1.130641,-0.87199 2.224583,-1.79155 3.277321,-2.7569 0.003,0.0832 0.005,0.16641 0.007,0.24971 z m -3.298574,2.75649 c -0.05899,0.19237 -0.11936,0.38479 -0.181094,0.57725 -0.310545,0.23322 -0.623716,0.46294 -0.939423,0.68911 -0.07672,-0.01 -0.153358,-0.0199 -0.229907,-0.0301 -0.172659,0.12284 -0.346072,0.24463 -0.520225,0.36534 -0.01337,0.0758 -0.02694,0.15168 -0.04069,0.22757 -0.259114,0.17804 -0.519838,0.35374 -0.782125,0.52707 -0.264421,-0.0426 -0.527752,-0.0874 -0.789969,-0.1341 1.199532,-0.77506 2.366873,-1.59947 3.497515,-2.47145 -0.0045,0.083 -0.0092,0.16615 -0.01408,0.2493 z m -3.518211,2.46945 c -0.07479,0.18682 -0.150933,0.37359 -0.228415,0.56029 -0.328838,0.20669 -0.659975,0.40974 -0.993322,0.60911 -0.07566,-0.0162 -0.151222,-0.0325 -0.226685,-0.049 -0.182241,0.1082 -0.365139,0.21531 -0.548679,0.32131 -0.01957,0.0745 -0.03933,0.14899 -0.05928,0.2235 -0.272931,0.15616 -0.547257,0.30989 -0.822933,0.46118 -0.2601,-0.0642 -0.518964,-0.13035 -0.776569,-0.19841 1.259406,-0.67456 2.491129,-1.40026 3.690662,-2.17531 -0.01138,0.0824 -0.02297,0.16483 -0.03478,0.2473 z m -3.710799,2.17171 c -0.08985,0.18014 -0.181025,0.36012 -0.273514,0.53992 -0.344704,0.17919 -0.69138,0.35461 -1.03994,0.52623 -0.07411,-0.0223 -0.148117,-0.0447 -0.222009,-0.0673 -0.190495,0.093 -0.381549,0.18494 -0.573147,0.27571 -0.02557,0.0727 -0.05132,0.14534 -0.07726,0.218 -0.284783,0.13351 -0.570747,0.2645 -0.857846,0.39296 -0.254097,-0.0851 -0.506814,-0.17204 -0.758125,-0.26076 1.310262,-0.5705 2.597351,-1.19391 3.856757,-1.86847 -0.01809,0.0812 -0.0364,0.16245 -0.05492,0.2437 z m -3.876335,1.86329 c -0.104171,0.17231 -0.209636,0.34435 -0.316392,0.51612 -0.358143,0.15072 -0.717931,0.29756 -1.079277,0.44046 -0.07208,-0.0282 -0.144041,-0.0565 -0.215877,-0.085 -0.197421,0.0774 -0.395303,0.15353 -0.593632,0.22853 -0.03136,0.0704 -0.0629,0.14074 -0.09463,0.21108 -0.294669,0.11007 -0.590306,0.21755 -0.886863,0.32241 -0.246414,-0.10536 -0.4913,-0.21242 -0.734637,-0.32114 1.352102,-0.46287 2.685538,-0.98045 3.9958,-1.55095 -0.02462,0.0795 -0.04945,0.15901 -0.07449,0.23852 z m -4.014819,1.54416 c -0.11775,0.16334 -0.236766,0.32631 -0.357049,0.48889 -0.369154,0.12131 -0.739628,0.23859 -1.111332,0.35182 -0.06957,-0.0339 -0.138996,-0.068 -0.208292,-0.10219 -0.203019,0.0611 -0.406401,0.12106 -0.610131,0.17977 -0.03694,0.0676 -0.07407,0.13518 -0.111385,0.20271 -0.302591,0.0859 -0.605934,0.16906 -0.909985,0.24955 -0.237047,-0.12496 -0.472423,-0.25149 -0.706104,-0.37957 1.384923,-0.35168 2.75569,-0.75984 4.107791,-1.22271 -0.03096,0.0773 -0.06213,0.1545 -0.09351,0.23173 z m -4.126253,1.21434 c -0.130586,0.15323 -0.262414,0.30598 -0.395482,0.45824 -0.377739,0.0909 -0.756471,0.17771 -1.136106,0.2603 -0.06656,-0.0395 -0.132983,-0.0791 -0.199253,-0.11878 -0.207288,0.0444 -0.414841,0.0875 -0.622646,0.12943 -0.04233,0.0644 -0.08484,0.12866 -0.12753,0.19292 -0.308547,0.0609 -0.617632,0.11901 -0.92721,0.17435 -0.226001,-0.1439 -0.450185,-0.28925 -0.672528,-0.43602 1.408728,-0.23693 2.807807,-0.53212 4.19273,-0.8838 -0.03712,0.0745 -0.07444,0.14894 -0.111975,0.22336 z m -4.210632,0.87382 c -0.142684,0.14198 -0.286582,0.28338 -0.431695,0.42417 -0.383897,0.0596 -0.76846,0.1149 -1.153599,0.16589 -0.06308,-0.0448 -0.125999,-0.0898 -0.18876,-0.1348 -0.210229,0.0271 -0.420625,0.053 -0.631175,0.0775 -0.04751,0.0606 -0.0952,0.12119 -0.143064,0.18169 -0.312537,0.0351 -0.625399,0.0674 -0.93854,0.0968 -0.213273,-0.16219 -0.424583,-0.32571 -0.633907,-0.49053 1.423515,-0.1186 2.84189,-0.29725 4.250617,-0.53417 -0.04308,0.0712 -0.08638,0.14231 -0.129877,0.21338 z m -4.267962,0.52261 c -0.154039,0.12959 -0.309268,0.25848 -0.465685,0.38667 -0.387628,0.0273 -0.775594,0.0502 -1.163811,0.0686 -0.05911,-0.05 -0.118046,-0.10006 -0.176812,-0.15024 -0.211841,0.009 -0.423753,0.0174 -0.63572,0.024 -0.05248,0.0564 -0.105144,0.11277 -0.157986,0.16903 -0.314563,0.009 -0.629236,0.0143 -0.943974,0.017 -0.161377,-0.14593 -0.321365,-0.29265 -0.479953,-0.44015 -0.03684,-0.0343 -0.0736,-0.0686 -0.110287,-0.1029 0.03676,8e-5 0.07352,1.2e-4 0.110287,1.2e-4 1.392486,1e-4 2.784264,-0.0584 4.171163,-0.17399 -0.04887,0.0673 -0.09794,0.13462 -0.147222,0.20182 z m -4.298218,0.16071 c -0.164627,0.11605 -0.33039,0.23126 -0.497277,0.34564 -0.388734,-0.006 -0.777335,-0.0165 -1.165714,-0.0314 -0.05461,-0.0549 -0.10904,-0.10982 -0.163288,-0.16485 -0.211856,-0.009 -0.423643,-0.019 -0.635348,-0.0305 -0.0571,0.0517 -0.11438,0.10332 -0.171823,0.15483 -0.314033,-0.0184 -0.627867,-0.0396 -0.941458,-0.0638 -0.182663,-0.19603 -0.363148,-0.39302 -0.541457,-0.59093 1.422877,0.12458 2.851142,0.1893 4.280355,0.19235 -0.05446,0.063 -0.109122,0.12587 -0.16399,0.18866 z m -4.295676,-0.20712 c -0.173771,0.10157 -0.348586,0.20225 -0.524432,0.30202 -0.386543,-0.0388 -0.772629,-0.082 -1.158174,-0.12957 -0.04977,-0.0592 -0.09936,-0.11854 -0.148767,-0.17792 -0.210273,-0.0266 -0.42038,-0.0545 -0.630309,-0.0837 -0.06122,0.0467 -0.122596,0.0934 -0.18413,0.13986 -0.311277,-0.0446 -0.622146,-0.092 -0.93256,-0.14216 -0.165645,-0.21054 -0.329093,-0.42185 -0.490345,-0.6339 1.407661,0.24247 2.825151,0.42691 4.248028,0.55149 -0.05958,0.0581 -0.119348,0.11603 -0.179311,0.17389 z m -4.261858,-0.56699 c -0.181603,0.0868 -0.364159,0.1726 -0.547654,0.25747 -0.381961,-0.0707 -0.763144,-0.14568 -1.143463,-0.22481 -0.04472,-0.0632 -0.08925,-0.12635 -0.133602,-0.1896 -0.207381,-0.0439 -0.4145,-0.089 -0.621345,-0.1353 -0.06486,0.0416 -0.129866,0.083 -0.195018,0.12429 -0.306587,-0.07 -0.612556,-0.14272 -0.917861,-0.21814 -0.147875,-0.22343 -0.293534,-0.44744 -0.436977,-0.672 1.383566,0.35673 2.781399,0.65723 4.189061,0.8997 -0.0642,0.0529 -0.128581,0.10571 -0.193141,0.15839 z m -4.201399,-0.91597 c -0.188125,0.0717 -0.377111,0.14235 -0.566944,0.212 -0.374989,-0.10163 -0.748878,-0.20735 -1.121582,-0.31713 -0.03945,-0.0666 -0.07871,-0.1332 -0.11779,-0.19986 -0.203181,-0.0606 -0.406005,-0.12231 -0.608458,-0.18528 -0.06803,0.0362 -0.136189,0.0722 -0.204486,0.10811 -0.299964,-0.0946 -0.5991,-0.19187 -0.89736,-0.29173 -0.129355,-0.2347 -0.256472,-0.46979 -0.381353,-0.70525 1.350589,0.46735 2.719887,0.88029 4.103452,1.23702 -0.06833,0.0475 -0.136818,0.0949 -0.205479,0.14212 z m -4.1143,-1.25405 c -0.193336,0.0563 -0.387441,0.11149 -0.582301,0.16562 -0.365626,-0.13155 -0.729832,-0.26707 -1.09253,-0.40651 -0.03396,-0.0695 -0.06774,-0.13912 -0.101333,-0.20872 -0.197674,-0.0767 -0.394894,-0.1546 -0.591646,-0.23365 -0.07072,0.0306 -0.141568,0.061 -0.212536,0.0913 -0.291408,-0.11844 -0.581775,-0.23943 -0.871058,-0.36295 -0.110081,-0.24434 -0.217905,-0.4889 -0.323473,-0.73363 1.308733,0.57433 2.640614,1.09608 3.991204,1.56343 -0.07195,0.0418 -0.144063,0.0835 -0.216327,0.12509 z m -4.00056,-1.5812 c -0.197236,0.0406 -0.395149,0.08 -0.593725,0.1183 -0.353874,-0.1605 -0.706005,-0.32483 -1.056307,-0.49295 -0.02827,-0.0721 -0.05634,-0.14411 -0.08423,-0.21618 -0.190858,-0.0923 -0.381166,-0.18581 -0.57091,-0.28041 -0.07294,0.0248 -0.145999,0.0494 -0.219166,0.0739 -0.280917,-0.14147 -0.560583,-0.28541 -0.838954,-0.43178 -0.09006,-0.25238 -0.177834,-0.50478 -0.263337,-0.75717 1.257996,0.67769 2.543581,1.3046 3.852314,1.87894 -0.07509,0.0359 -0.150313,0.0717 -0.225683,0.10732 z m -3.860179,-1.89748 c -0.199825,0.0245 -0.400235,0.0479 -0.601217,0.0701 -0.339731,-0.18847 -0.677398,-0.38063 -1.012914,-0.57646 -0.02235,-0.0741 -0.04451,-0.14816 -0.06648,-0.22223 -0.182734,-0.10743 -0.364822,-0.21596 -0.546249,-0.32558 -0.07469,0.0188 -0.149486,0.0375 -0.224378,0.0559 -0.268493,-0.1637 -0.535524,-0.32979 -0.801049,-0.49823 -0.06928,-0.25879 -0.13626,-0.51741 -0.200945,-0.77584 1.198379,0.7774 2.428787,1.50586 3.686784,2.18354 -0.07772,0.0298 -0.155569,0.0594 -0.233548,0.0888 z m -3.693157,-2.20283 c -0.201104,0.008 -0.4027,0.0152 -0.604776,0.0209 -0.323198,-0.21546 -0.644011,-0.43448 -0.962351,-0.65704 -0.01622,-0.0756 -0.03225,-0.15127 -0.04809,-0.22687 -0.173303,-0.12199 -0.345862,-0.24504 -0.517665,-0.36913 -0.07597,0.0126 -0.152025,0.0251 -0.22817,0.0373 -0.254134,-0.18515 -0.506597,-0.37259 -0.757342,-0.5623 -0.04775,-0.26358 -0.09318,-0.52681 -0.136298,-0.78966 1.129883,0.87349 2.296234,1.69984 3.494614,2.47724 -0.07986,0.0233 -0.15983,0.0465 -0.239921,0.0695 z m -3.499496,-2.49728 c -0.20107,-0.008 -0.402542,-0.0181 -0.604402,-0.0292 -0.304275,-0.24147 -0.605843,-0.48637 -0.904616,-0.73467 -0.0099,-0.0767 -0.01956,-0.15345 -0.02905,-0.23011 -0.162562,-0.13601 -0.324286,-0.27304 -0.485156,-0.41108 -0.07677,0.006 -0.153619,0.0123 -0.230543,0.0181 -0.237842,-0.2058 -0.473801,-0.4138 -0.707833,-0.62399 -0.02547,-0.26676 -0.0486,-0.53297 -0.06939,-0.79862 1.052505,0.96593 2.145919,1.88655 3.275801,2.76003 -0.08149,0.0167 -0.163096,0.0332 -0.244803,0.0494 z m -3.279192,-2.78083 c -0.199727,-0.0254 -0.399763,-0.0521 -0.600096,-0.0801 -0.282962,-0.26651 -0.562894,-0.53631 -0.839711,-0.80938 -0.0033,-0.0774 -0.0064,-0.15468 -0.0094,-0.23194 -0.02844,-0.0282 -0.05684,-0.0565 -0.08521,-0.0848 -0.121784,-0.12156 -0.242928,-0.24375 -0.363431,-0.36654 -0.07707,-3.7e-4 -0.154203,-9.3e-4 -0.231392,-0.002 -0.219482,-0.22558 -0.436813,-0.45319 -0.651976,-0.68278 -0.0025,-0.26803 -0.0027,-0.53528 -5.69e-4,-0.80172 0.49395,0.53839 0.999753,1.06606 1.517161,1.58242 0.494153,0.49332 0.998587,0.97604 1.512786,1.44794 -0.08264,0.01 -0.16537,0.0193 -0.248194,0.0286 z m -3.031494,-3.05177 c -0.196806,-0.0424 -0.393778,-0.0862 -0.590898,-0.13137 -0.258943,-0.28975 -0.514541,-0.58244 -0.766758,-0.87798 0.0033,-0.0773 0.0068,-0.15456 0.0105,-0.23172 -0.137072,-0.1617 -0.273134,-0.32424 -0.408179,-0.48762 -0.07671,-0.007 -0.153458,-0.014 -0.230252,-0.0213 -0.199355,-0.24323 -0.396471,-0.48827 -0.59133,-0.73509 0.02022,-0.26713 0.04261,-0.53333 0.06714,-0.79857 0.873277,1.13015 1.793737,2.22378 2.759514,3.27644 -0.08318,0.003 -0.166423,0.005 -0.249741,0.007 z m -2.759151,-3.29753 c -0.192469,-0.0588 -0.384996,-0.119019 -0.577565,-0.180566 -0.233592,-0.310371 -0.463704,-0.623356 -0.6903,-0.938866 0.0098,-0.07675 0.01971,-0.153418 0.02983,-0.229998 -0.123076,-0.172552 -0.245102,-0.345856 -0.36607,-0.519897 -0.07586,-0.01328 -0.151754,-0.02675 -0.227672,-0.0404 -0.178416,-0.25894 -0.354506,-0.519483 -0.528249,-0.781584 0.04229,-0.264542 0.08663,-0.528003 0.132999,-0.790358 0.777041,1.198717 1.603133,2.365376 2.476409,3.495522 -0.08307,-0.004 -0.166199,-0.009 -0.249378,-0.0139 z m -2.474447,-3.516094 c -0.18698,-0.07454 -0.37391,-0.150407 -0.560775,-0.227615 -0.207235,-0.328588 -0.410856,-0.659467 -0.610826,-0.992549 0.01604,-0.0757 0.03224,-0.151308 0.04861,-0.226815 -0.10853,-0.182097 -0.21597,-0.364849 -0.322312,-0.548242 -0.07454,-0.01945 -0.149088,-0.03908 -0.223651,-0.0589 -0.156665,-0.272708 -0.310916,-0.546807 -0.462732,-0.822251 0.06375,-0.260263 0.129423,-0.519298 0.197005,-0.777079 0.677071,1.258379 1.40506,2.489155 2.1821,3.687872 -0.08244,-0.01126 -0.164908,-0.02274 -0.247416,-0.03442 z M 19.95968,92.88237 c -0.180339,-0.08953 -0.36052,-0.180369 -0.540529,-0.272524 -0.179874,-0.344407 -0.355999,-0.690781 -0.528337,-1.039037 0.02213,-0.07417 0.04441,-0.148224 0.06685,-0.222171 -0.09344,-0.19033 -0.185739,-0.381217 -0.276904,-0.572649 -0.07273,-0.02542 -0.145462,-0.05102 -0.218189,-0.07682 -0.134103,-0.284533 -0.265703,-0.570245 -0.394781,-0.857092 0.08458,-0.254295 0.170978,-0.507215 0.25916,-0.758734 0.573365,1.309129 1.199516,2.595111 1.876586,3.853489 -0.08127,-0.01794 -0.162551,-0.0361 -0.243854,-0.05447 z m -1.871426,-3.873009 c -0.172545,-0.103807 -0.344826,-0.208903 -0.516827,-0.315289 -0.151507,-0.357828 -0.29913,-0.7173 -0.442832,-1.07833 0.02804,-0.07214 0.05622,-0.144168 0.08455,-0.216068 -0.07779,-0.197249 -0.154406,-0.39496 -0.229844,-0.593118 -0.07045,-0.0312 -0.140877,-0.06258 -0.211287,-0.09415 -0.11073,-0.294416 -0.218868,-0.5898 -0.324396,-0.886106 0.104803,-0.24664 0.2113,-0.491757 0.319463,-0.735326 0.465925,1.350969 0.986504,2.683246 1.55987,3.992376 -0.07956,-0.02445 -0.159129,-0.04911 -0.238694,-0.07399 z m -1.55311,-4.011371 c -0.163599,-0.117371 -0.326827,-0.236008 -0.489667,-0.355911 -0.122137,-0.36885 -0.240253,-0.739021 -0.354312,-1.110428 0.03377,-0.06964 0.06767,-0.139137 0.101704,-0.208503 -0.06159,-0.202857 -0.121974,-0.406078 -0.181135,-0.60965 -0.06768,-0.03679 -0.13533,-0.07376 -0.202944,-0.11091 -0.08654,-0.302357 -0.170408,-0.60547 -0.251574,-0.909295 0.124406,-0.237296 0.250385,-0.472922 0.377913,-0.706852 0.354751,1.383899 0.766023,2.75356 1.231949,4.10453 -0.07733,-0.03078 -0.154639,-0.06178 -0.231934,-0.09298 z m -1.223588,-4.123002 c -0.153502,-0.13022 -0.306525,-0.261683 -0.459053,-0.394388 -0.09176,-0.377474 -0.179364,-0.755946 -0.262776,-1.135331 0.03932,-0.06664 0.07875,-0.133133 0.118319,-0.199479 -0.04485,-0.207152 -0.08844,-0.414571 -0.130774,-0.622244 -0.06444,-0.04218 -0.128823,-0.08454 -0.19316,-0.127086 -0.06155,-0.308356 -0.120326,-0.617257 -0.176318,-0.926657 0.143391,-0.226265 0.288236,-0.450712 0.434511,-0.673315 0.239842,1.407918 0.538073,2.806054 0.892824,4.189953 -0.07456,-0.03694 -0.149083,-0.07409 -0.223573,-0.111453 z m -0.882865,-4.207901 c -0.142251,-0.142354 -0.283918,-0.285928 -0.424981,-0.430721 -0.06038,-0.383699 -0.116465,-0.768075 -0.168224,-1.15304 0.04468,-0.06316 0.08948,-0.126155 0.134393,-0.188993 -0.02755,-0.210134 -0.05381,-0.420439 -0.07877,-0.6309 -0.06071,-0.04738 -0.121355,-0.09494 -0.181935,-0.142683 -0.03574,-0.312413 -0.06862,-0.62516 -0.09863,-0.938194 0.161758,-0.213545 0.324853,-0.425124 0.489257,-0.634712 0.121199,1.423026 0.302653,2.840726 0.542495,4.248644 -0.07126,-0.04292 -0.142461,-0.08606 -0.213614,-0.129401 z M 13.897755,72.40102 c -0.129849,-0.153775 -0.259006,-0.308746 -0.387454,-0.464912 -0.02799,-0.387526 -0.05156,-0.775406 -0.07066,-1.163552 0.04987,-0.05919 0.09985,-0.118204 0.149925,-0.177048 -0.0097,-0.211803 -0.01807,-0.423681 -0.0251,-0.635619 -0.0565,-0.05239 -0.112927,-0.104951 -0.16927,-0.157699 -0.0091,-0.314528 -0.01529,-0.629178 -0.0185,-0.943904 0.168397,-0.18681 0.337865,-0.37176 0.508382,-0.55483 0.01125,-0.01208 0.02251,-0.02415 0.03376,-0.03621 -8e-6,0.01207 -1.1e-5,0.02414 -10e-6,0.03621 -1.29e-4,1.417137 0.0608,2.833381 0.180978,4.244388 -0.06742,-0.04873 -0.134772,-0.09767 -0.202055,-0.146824 z m -0.167814,-4.29749 c -0.116291,-0.164459 -0.231746,-0.33006 -0.346353,-0.496793 0.0054,-0.388757 0.01541,-0.77738 0.02985,-1.165781 0.0548,-0.05468 0.109677,-0.109176 0.164645,-0.16349 0.0086,-0.211863 0.01851,-0.423658 0.02976,-0.635369 -0.05177,-0.05705 -0.103443,-0.114259 -0.155017,-0.171644 0.01802,-0.314049 0.03896,-0.627899 0.0628,-0.941505 0.195836,-0.182855 0.392639,-0.363518 0.590373,-0.541993 -0.123234,1.422845 -0.186244,2.851092 -0.187163,4.280286 -0.06306,-0.05436 -0.126028,-0.108935 -0.188901,-0.163711 z m 0.202013,-4.295709 c -0.101717,-0.173664 -0.202539,-0.348378 -0.302456,-0.52413 0.03851,-0.386558 0.08141,-0.772657 0.128652,-1.158213 0.0592,-0.04981 0.118468,-0.09944 0.177807,-0.148883 0.02647,-0.210275 0.05423,-0.420384 0.08328,-0.630313 -0.04676,-0.06119 -0.09341,-0.122528 -0.139958,-0.18403 0.04439,-0.311283 0.0916,-0.622157 0.141629,-0.932575 0.210434,-0.165741 0.421646,-0.329272 0.633601,-0.490596 -0.241815,1.407586 -0.425273,2.825029 -0.548507,4.247874 -0.05812,-0.05952 -0.11614,-0.119229 -0.174051,-0.179134 z m 0.564104,-4.26179 c -0.08685,-0.181547 -0.172736,-0.364051 -0.257664,-0.547501 0.07058,-0.381959 0.145402,-0.763137 0.224438,-1.143449 0.06313,-0.04473 0.126311,-0.08928 0.189548,-0.133638 0.0438,-0.207373 0.08885,-0.414485 0.135152,-0.62132 -0.04155,-0.06485 -0.08299,-0.12984 -0.124304,-0.19498 0.06994,-0.306578 0.142616,-0.612535 0.218011,-0.917824 0.223396,-0.147884 0.447381,-0.29354 0.67192,-0.43697 -0.356661,1.383417 -0.656832,2.781146 -0.898647,4.188732 -0.05294,-0.06417 -0.105754,-0.128519 -0.158454,-0.19305 z m 0.914992,-4.201139 c -0.07167,-0.188107 -0.142337,-0.37708 -0.211978,-0.566904 0.101637,-0.374962 0.207385,-0.748821 0.317209,-1.121491 0.06658,-0.03944 0.133206,-0.07869 0.199868,-0.117755 0.06058,-0.20316 0.122369,-0.40596 0.185371,-0.608388 -0.03615,-0.06803 -0.07216,-0.136197 -0.108053,-0.204498 0.09467,-0.299932 0.191994,-0.599031 0.291946,-0.897252 0.23472,-0.129283 0.469841,-0.25632 0.705328,-0.381113 -0.467772,1.350337 -0.880922,2.719441 -1.237582,4.102858 -0.0475,-0.06832 -0.09487,-0.136803 -0.142109,-0.205457 z m 1.254676,-4.113757 c -0.05621,-0.193346 -0.111342,-0.387463 -0.165397,-0.582339 0.13169,-0.365567 0.267357,-0.729709 0.406964,-1.092338 0.06957,-0.03393 0.139154,-0.06768 0.208767,-0.101234 0.07681,-0.197633 0.154788,-0.394811 0.233939,-0.59152 -0.03054,-0.07074 -0.06094,-0.141597 -0.09121,-0.212581 0.118591,-0.291345 0.239743,-0.581646 0.363435,-0.870858 0.244408,-0.109939 0.489029,-0.217613 0.733827,-0.323025 -0.575149,1.308346 -1.097542,2.639915 -1.565314,3.990251 -0.04181,-0.07196 -0.08349,-0.144082 -0.125015,-0.216356 z m 1.583155,-3.999643 c -0.04044,-0.197261 -0.07975,-0.395201 -0.117921,-0.593807 0.160738,-0.353774 0.325318,-0.7058 0.493703,-1.05599 0.07207,-0.02822 0.144156,-0.05624 0.216245,-0.08408 0.09249,-0.190794 0.186107,-0.381037 0.280857,-0.570713 -0.02474,-0.07296 -0.04932,-0.146042 -0.07376,-0.219231 0.141695,-0.280818 0.28586,-0.560381 0.432477,-0.838643 0.25246,-0.08985 0.504944,-0.177419 0.757417,-0.262706 -0.678791,1.257444 -1.306694,2.542567 -1.881842,3.850913 -0.03588,-0.07511 -0.0716,-0.150356 -0.107174,-0.225748 z m 1.900431,-3.858797 c -0.02437,-0.199854 -0.04756,-0.400294 -0.06955,-0.601307 0.188782,-0.339583 0.381269,-0.677094 0.577427,-1.012447 0.07411,-0.02228 0.14821,-0.04438 0.222302,-0.06628 0.107616,-0.182643 0.216326,-0.364637 0.326124,-0.545968 -0.01873,-0.07472 -0.03731,-0.149532 -0.05572,-0.224447 0.163982,-0.268351 0.330347,-0.535235 0.499073,-0.800607 0.258875,-0.06902 0.517586,-0.135738 0.776096,-0.200157 -0.778697,1.197633 -1.508375,2.427399 -2.187165,3.684844 -0.0297,-0.07775 -0.05922,-0.155625 -0.08859,-0.233632 z m 2.206502,-3.69122 c -0.008,-0.201125 -0.01478,-0.402742 -0.02028,-0.60484 0.215819,-0.322993 0.43521,-0.643591 0.658135,-0.961709 0.07567,-0.01614 0.151316,-0.03209 0.226938,-0.04784 0.122196,-0.17318 0.245445,-0.345613 0.369741,-0.517287 -0.01253,-0.07599 -0.02489,-0.152065 -0.03708,-0.228229 0.185455,-0.253942 0.373202,-0.506207 0.563222,-0.756749 0.263654,-0.04745 0.526955,-0.09257 0.789866,-0.135377 -0.87487,1.12891 -1.702587,2.294409 -2.481285,3.492042 -0.02326,-0.07989 -0.04634,-0.159888 -0.06925,-0.240008 z m 2.50137,-3.496911 c 0.0087,-0.201072 0.01861,-0.402545 0.02988,-0.604405 0.241852,-0.304004 0.48714,-0.605292 0.735827,-0.903776 0.07676,-0.0098 0.153476,-0.01937 0.230154,-0.02877 0.136225,-0.162402 0.273463,-0.323963 0.411708,-0.484667 -0.0061,-0.07678 -0.01208,-0.153641 -0.01785,-0.230577 0.20611,-0.237594 0.414425,-0.473299 0.624924,-0.707069 0.266796,-0.02513 0.53305,-0.04792 0.798727,-0.06837 -0.967309,1.051278 -1.889331,2.143599 -2.764202,3.27251 -0.01658,-0.08152 -0.03297,-0.163146 -0.04916,-0.244877 z m 2.785034,-3.275869 c 0.02561,-0.199699 0.05258,-0.399704 0.08093,-0.600003 0.26688,-0.282618 0.53706,-0.562196 0.810504,-0.838648 0.07737,-0.0032 0.154687,-0.0062 0.231948,-0.0091 0.03439,-0.03453 0.06883,-0.06901 0.103329,-0.103446 0.115664,-0.115441 0.231885,-0.230304 0.348655,-0.344588 4.7e-4,-0.07707 0.0011,-0.154201 0.002,-0.231389 0.225869,-0.219179 0.453758,-0.436206 0.683621,-0.651062 0.268033,-0.0021 0.535277,-0.002 0.801706,4.73e-4 -0.532678,0.487448 -1.054925,0.98648 -1.566166,1.496862 -0.500317,0.499301 -0.989783,1.00918 -1.468173,1.529098 -0.0096,-0.08265 -0.01909,-0.165398 -0.02833,-0.248236 z m 3.055755,-3.027468 c 0.04266,-0.196746 0.0867,-0.393655 0.132119,-0.590709 0.290075,-0.25856 0.583076,-0.513775 0.878916,-0.765609 0.07731,0.0034 0.154538,0.007 0.231696,0.01079 0.161857,-0.136863 0.32456,-0.272716 0.488094,-0.407552 0.007,-0.0767 0.01422,-0.153433 0.02161,-0.230213 0.24346,-0.199044 0.488728,-0.395849 0.735759,-0.590398 0.267092,0.02054 0.533248,0.04325 0.798443,0.06809 -1.131113,0.871891 -2.225833,1.790945 -3.279719,2.755344 -0.0025,-0.08318 -0.0048,-0.166425 -0.0069,-0.249744 z m 3.300783,-2.754946 c 0.05905,-0.192387 0.119459,-0.384831 0.181225,-0.577314 0.31062,-0.233213 0.623844,-0.462948 0.939586,-0.689171 0.07673,0.0099 0.153384,0.01988 0.229947,0.03008 0.172678,-0.122874 0.346105,-0.244698 0.520267,-0.365466 0.01336,-0.07584 0.02691,-0.151713 0.04065,-0.227611 0.259115,-0.178119 0.519828,-0.353913 0.782093,-0.527364 0.264478,0.04257 0.527874,0.08719 0.790166,0.133822 -1.199461,0.775748 -2.366968,1.600476 -3.498082,2.472366 0.0045,-0.08306 0.0092,-0.166178 0.01415,-0.249346 z m 3.518611,-2.470385 c 0.07472,-0.18689 0.150782,-0.373731 0.228174,-0.560504 0.328774,-0.206887 0.659831,-0.410164 0.993084,-0.609798 0.07568,0.01611 0.151266,0.03239 0.226753,0.04883 0.182191,-0.108349 0.365034,-0.215609 0.548515,-0.321773 0.01951,-0.07452 0.03922,-0.149044 0.0591,-0.223584 0.272835,-0.156403 0.547057,-0.310396 0.82262,-0.46196 0.260192,0.06397 0.519158,0.129875 0.776874,0.197675 -1.258928,0.675969 -2.490342,1.402737 -3.689802,2.178484 0.01135,-0.08242 0.02291,-0.164874 0.03468,-0.247365 z m 3.709797,-2.174918 c 0.08968,-0.180256 0.180667,-0.360354 0.272965,-0.54028 0.344539,-0.179582 0.691038,-0.355424 1.039412,-0.52749 0.07415,0.02218 0.148186,0.04452 0.222114,0.06702 0.190395,-0.09329 0.381346,-0.185449 0.572839,-0.276474 0.02547,-0.07271 0.05113,-0.145424 0.07697,-0.218131 0.28462,-0.133897 0.570415,-0.265299 0.857341,-0.394186 0.254236,0.08475 0.5071,0.171309 0.758568,0.259646 -1.309514,0.572557 -2.595955,1.197728 -3.854882,1.873698 0.01801,-0.08125 0.03624,-0.162515 0.05467,-0.243799 z m 3.874344,-1.868548 c 0.103914,-0.172482 0.209114,-0.344701 0.315598,-0.516641 0.357913,-0.151299 0.717465,-0.298727 1.07857,-0.442247 0.07213,0.02807 0.144141,0.05629 0.216028,0.08466 0.197291,-0.07769 0.395043,-0.154218 0.593239,-0.229568 0.03123,-0.07044 0.06265,-0.140853 0.09425,-0.211251 0.294468,-0.110603 0.589902,-0.218623 0.886255,-0.324043 0.246608,0.1049 0.491699,0.211488 0.735248,0.319736 -1.351221,0.465509 -2.683808,0.98545 -3.993322,1.558006 0.0245,-0.07955 0.04921,-0.159098 0.07414,-0.238649 z m 4.01225,-1.551273 c 0.11743,-0.16357 0.236121,-0.326771 0.356073,-0.489587 0.368897,-0.122038 0.739111,-0.240073 1.110557,-0.354069 0.06963,0.03378 0.139132,0.0677 0.208496,0.101749 0.20288,-0.06156 0.406123,-0.121917 0.609716,-0.181057 0.0368,-0.06768 0.07377,-0.135332 0.110938,-0.202946 0.302382,-0.08652 0.605519,-0.170366 0.909363,-0.25153 0.237309,0.124423 0.472955,0.250413 0.706914,0.377945 -1.384046,0.354826 -2.7539,0.765902 -4.10512,1.231411 0.03081,-0.07732 0.06183,-0.154627 0.09306,-0.231916 z m 4.123515,-1.223092 c 0.130226,-0.153521 0.26169,-0.306566 0.39439,-0.459119 0.377491,-0.0918 0.755977,-0.179464 1.135373,-0.262957 0.06665,0.03931 0.133159,0.07874 0.19952,0.11829 0.20716,-0.0449 0.414587,-0.08854 0.622266,-0.130939 0.04216,-0.06445 0.08451,-0.128859 0.127041,-0.193215 0.308361,-0.06164 0.617264,-0.120529 0.926665,-0.176646 0.226338,0.143318 0.450868,0.288084 0.673566,0.434272 -1.407993,0.240509 -2.806232,0.539085 -4.190279,0.893911 0.03694,-0.07457 0.0741,-0.149099 0.111458,-0.223597 z m 4.208139,-0.884009 c 0.142304,-0.142333 0.28582,-0.284084 0.430549,-0.425236 0.383695,-0.06058 0.768064,-0.116897 1.15302,-0.168909 0.06319,0.04465 0.126222,0.08941 0.189096,0.134282 0.210132,-0.02769 0.420435,-0.0541 0.630894,-0.07921 0.04734,-0.06075 0.09486,-0.121437 0.142555,-0.182058 0.312403,-0.03598 0.625139,-0.06911 0.938161,-0.09939 0.213695,0.161586 0.425438,0.324501 0.635202,0.488718 -1.423058,0.122557 -2.840803,0.304998 -4.248795,0.545506 0.0429,-0.07128 0.086,-0.142515 0.129318,-0.213695 z m 4.266122,-0.53402 c 0.153662,-0.130007 0.308513,-0.259325 0.464552,-0.387939 0.387508,-0.02839 0.775368,-0.05237 1.163494,-0.07193 0.05925,0.0498 0.118322,0.09971 0.177228,0.149723 0.211796,-0.01 0.423666,-0.01859 0.635596,-0.02589 0.05231,-0.05657 0.104808,-0.113063 0.157481,-0.169475 0.314511,-0.0095 0.629143,-0.01612 0.943851,-0.01977 0.199382,0.179227 0.396665,0.359663 0.591825,0.541282 -1.429243,9.69e-4 -2.857614,0.06364 -4.280672,0.186197 0.04867,-0.06747 0.09755,-0.134875 0.146645,-0.202209 z m 4.29746,-0.173132 c 0.164288,-0.11654 0.329722,-0.232246 0.496289,-0.347107 0.388779,0.0049 0.777433,0.01424 1.165876,0.02811 0.05476,0.05472 0.109344,0.109521 0.163744,0.164411 0.211886,0.0083 0.423707,0.01788 0.635448,0.02882 0.05697,-0.05186 0.114113,-0.103617 0.171425,-0.155279 0.314095,0.01756 0.627997,0.03804 0.941661,0.06142 0.183154,0.195582 0.364118,0.392134 0.542893,0.589622 -1.410561,-0.1201 -2.82633,-0.180984 -4.242926,-0.180864 -0.01261,-10e-7 -0.02523,3e-6 -0.03784,1.1e-5 0.0126,-0.01466 0.02522,-0.02932 0.03784,-0.04397 0.04174,-0.04845 0.08361,-0.09684 0.12559,-0.145176 z m 4.296229,0.195672 c 0.173528,-0.101976 0.348109,-0.20306 0.52373,-0.303239 0.386643,0.03796 0.772836,0.0803 1.158491,0.126993 0.0499,0.05913 0.09962,0.118334 0.14915,0.177608 0.210329,0.02617 0.420495,0.05363 0.630483,0.08239 0.06112,-0.04685 0.122405,-0.0936 0.183846,-0.14023 0.311372,0.04395 0.622339,0.09073 0.932853,0.14033 0.166049,0.210219 0.329886,0.421221 0.491515,0.632969 -1.408021,-0.239884 -2.82584,-0.421329 -4.248961,-0.542499 0.05944,-0.05821 0.119068,-0.116322 0.178893,-0.174325 z m 4.262913,0.558091 c 0.18144,-0.0871 0.363841,-0.173251 0.547189,-0.258436 0.382086,0.07006 0.763396,0.144376 1.143842,0.222909 0.04482,0.06307 0.08945,0.126201 0.133902,0.189383 0.207446,0.04352 0.414631,0.0883 0.621541,0.134338 0.0648,-0.04164 0.12974,-0.08316 0.19483,-0.124567 0.306691,0.06954 0.612762,0.141827 0.918168,0.216836 0.14818,0.223219 0.294129,0.44703 0.437848,0.671398 -1.383923,-0.354923 -2.782145,-0.653245 -4.190165,-0.893128 0.0641,-0.05303 0.128382,-0.10594 0.192845,-0.158733 z m 4.202607,0.909486 c 0.188026,-0.07191 0.376919,-0.142816 0.566666,-0.212694 0.375108,0.101177 0.749113,0.206475 1.121929,0.315859 0.03952,0.06654 0.07885,0.133117 0.117998,0.199734 0.203239,0.06034 0.406118,0.121893 0.608624,0.184661 0.06799,-0.03623 0.136117,-0.07232 0.204378,-0.108292 0.30005,0.09433 0.599268,0.191314 0.897606,0.290936 0.129548,0.234579 0.256845,0.469561 0.381891,0.70491 -1.35083,-0.46629 -2.720455,-0.877815 -4.104379,-1.232739 0.06826,-0.04759 0.136689,-0.09505 0.205287,-0.142375 z m 4.115312,1.249863 c 0.193283,-0.05641 0.387341,-0.111758 0.58216,-0.166017 0.365708,0.131305 0.729988,0.266598 1.092752,0.405843 0.034,0.06953 0.06782,0.139085 0.10144,0.208663 0.197705,0.07661 0.394954,0.154398 0.591732,0.233359 0.07071,-0.03061 0.141535,-0.06108 0.212488,-0.0914 0.29145,0.118314 0.581854,0.239197 0.871166,0.362629 0.110153,0.2443 0.218035,0.488813 0.323646,0.733505 -1.30874,-0.573983 -2.640774,-1.095038 -3.991604,-1.561328 0.07192,-0.04189 0.143991,-0.08364 0.21622,-0.125251 z m 4.001027,1.579219 c 0.197214,-0.0406 0.395109,-0.08008 0.593673,-0.118403 0.353886,0.160443 0.706019,0.324742 1.05631,0.49286 0.02827,0.07205 0.05634,0.144104 0.08423,0.216168 0.190847,0.09234 0.381139,0.185821 0.570863,0.280434 0.07294,-0.02478 0.145997,-0.04942 0.219163,-0.0739 0.280891,0.141498 0.560522,0.285476 0.838848,0.431916 0.09,0.252381 0.177699,0.504788 0.263112,0.757182 -1.257653,-0.678002 -2.543099,-1.304913 -3.851839,-1.878896 0.07507,-0.03594 0.150285,-0.07173 0.225643,-0.10736 z m 3.859752,1.897553 c 0.199817,-0.02448 0.400223,-0.04777 0.601204,-0.06985 0.339643,0.188595 0.677207,0.380911 1.012603,0.576913 0.02231,0.07409 0.04443,0.148174 0.06636,0.222249 0.182663,0.107532 0.364674,0.216162 0.546019,0.325886 0.0747,-0.01875 0.1495,-0.03735 0.2244,-0.05579 0.268373,0.163878 0.535272,0.33015 0.800653,0.498794 0.06907,0.258825 0.135838,0.517485 0.200289,0.775944 -1.19757,-0.778348 -2.427431,-1.507442 -3.685084,-2.185445 0.07772,-0.02974 0.155573,-0.0593 0.233556,-0.0887 z m 3.691488,2.204867 c 0.201093,-0.008 0.402681,-0.01484 0.604752,-0.02036 0.322979,0.215756 0.643552,0.4351 0.961632,0.657997 0.01614,0.07566 0.03209,0.151296 0.04784,0.226908 0.173154,0.122181 0.345558,0.245421 0.517199,0.369715 0.07598,-0.01252 0.152046,-0.02488 0.228202,-0.03706 0.253895,0.185457 0.506103,0.37322 0.756579,0.563268 0.04739,0.263629 0.09245,0.526903 0.135178,0.789786 -1.12849,-0.87502 -2.29377,-1.702623 -3.49134,-2.480971 0.07987,-0.02327 0.159855,-0.04637 0.23996,-0.06928 z m 3.496233,2.501161 c 0.201042,0.0087 0.402486,0.01872 0.604319,0.03006 0.303893,0.241928 0.605055,0.487312 0.903397,0.736116 0.0097,0.07675 0.0193,0.153468 0.02866,0.230143 0.16232,0.136289 0.323792,0.273598 0.484404,0.41192 0.07677,-0.0061 0.153634,-0.01199 0.230564,-0.01771 0.23746,0.206233 0.47302,0.414684 0.70663,0.625333 0.025,0.266794 0.0475,0.533043 0.0678,0.798713 -1.050417,-0.96802 -2.142118,-1.890458 -3.270608,-2.765479 0.08151,-0.01656 0.16313,-0.03292 0.244853,-0.04909 z m 3.273995,2.786433 c 0.19966,0.02576 0.39963,0.0529 0.5999,0.08142 0.28238,0.267112 0.56171,0.537547 0.8379,0.811269 0.003,0.07737 0.006,0.154691 0.009,0.231954 0.0437,0.04363 0.0874,0.08735 0.13092,0.131143 0.10604,0.106636 0.21159,0.213744 0.31665,0.321318 0.0771,5.53e-4 0.1542,0.0013 0.23138,0.0022 0.21894,0.226114 0.4357,0.454249 0.65029,0.684359 0.002,0.268031 0.001,0.535262 -0.001,0.801672 -0.47807,-0.52368 -0.96737,-1.03729 -1.46769,-1.540283 -0.50747,-0.510386 -1.026,-1.009446 -1.55499,-1.496946 0.0826,-0.0096 0.1654,-0.01896 0.24824,-0.02814 z m 3.02418,3.058752 c 0.19668,0.04289 0.39352,0.08717 0.59051,0.13284 0.25818,0.290386 0.51301,0.5837 0.76443,0.879854 -0.004,0.07729 -0.007,0.154516 -0.0111,0.231663 0.13664,0.162027 0.27226,0.324899 0.40686,0.488603 0.0767,0.0071 0.1534,0.01443 0.23016,0.02192 0.19869,0.243716 0.39513,0.489241 0.58931,0.736529 -0.0209,0.267035 -0.044,0.533128 -0.0692,0.798255 -0.87011,-1.132248 -1.78759,-2.228086 -2.75066,-3.283054 0.0832,-0.0024 0.16642,-0.0046 0.24974,-0.0066 z m 2.75022,3.304181 c 0.19228,0.05933 0.38461,0.120017 0.57698,0.182067 0.23272,0.310939 0.46195,0.624482 0.68765,0.940543 -0.01,0.07671 -0.0201,0.153335 -0.0304,0.229874 0.12258,0.172851 0.24412,0.34645 0.36459,0.520785 0.0758,0.01348 0.15166,0.02715 0.22752,0.04101 0.17769,0.259373 0.35304,0.520344 0.52604,0.782865 -0.043,0.264379 -0.0881,0.52767 -0.13512,0.789852 -0.77364,-1.200605 -1.59641,-2.369262 -2.46653,-3.501509 0.0831,0.0046 0.16615,0.0095 0.2493,0.01451 z m 2.46451,3.522083 c 0.18675,0.07503 0.37344,0.151392 0.56006,0.229092 0.20631,0.329091 0.409,0.660462 0.60804,0.994028 -0.0162,0.07565 -0.0326,0.151196 -0.0492,0.226647 0.10802,0.182361 0.21495,0.365374 0.32079,0.549024 0.0745,0.01964 0.14896,0.03947 0.22346,0.05949 0.15591,0.273086 0.30941,0.547557 0.46047,0.823368 -0.0644,0.260059 -0.13079,0.518887 -0.19904,0.776462 -0.67367,-1.26004 -1.3982,-2.492594 -2.17185,-3.693199 0.0824,0.01149 0.16482,0.02318 0.24728,0.03509 z m 2.16825,3.713218 c 0.18008,0.09 0.36,0.181301 0.53975,0.273917 0.17896,0.344841 0.35416,0.691639 0.52559,1.040309 -0.0223,0.0741 -0.0448,0.148099 -0.0674,0.221982 0.0929,0.190557 0.18475,0.381668 0.27543,0.57332 0.0727,0.0256 0.14532,0.05139 0.21798,0.07737 0.13338,0.284855 0.26426,0.570883 0.39262,0.858039 -0.0852,0.254077 -0.17223,0.50678 -0.26103,0.758086 -0.57016,-1.310555 -1.19294,-2.598083 -1.8666,-3.858124 0.0812,0.01816 0.16243,0.03653 0.24368,0.05511 z m 1.86143,3.877588 c 0.17229,0.104229 0.34432,0.209743 0.51607,0.316541 0.15065,0.358189 0.29742,0.718014 0.44029,1.079386 -0.0282,0.07208 -0.0566,0.144042 -0.085,0.21588 0.0773,0.197438 0.15351,0.395333 0.2285,0.593674 0.0704,0.03136 0.14075,0.0629 0.21109,0.09463 0.11008,0.294679 0.21758,0.590319 0.32247,0.886875 -0.10534,0.246433 -0.21238,0.491349 -0.32106,0.734724 -0.46314,-1.352147 -0.98066,-2.685728 -1.55082,-3.996282 0.0795,0.02465 0.15901,0.0495 0.23851,0.07457 z m 1.54407,4.015194 c 0.16337,0.117728 0.32638,0.236716 0.489,0.356962 0.12139,0.369138 0.23879,0.739586 0.35216,1.11126 -0.0339,0.06958 -0.0679,0.139027 -0.10212,0.20834 0.0612,0.203004 0.12123,0.40637 0.18003,0.610084 0.0676,0.03692 0.13522,0.07401 0.20278,0.111294 0.086,0.302558 0.16936,0.605867 0.25002,0.909878 -0.12483,0.237128 -0.25122,0.472594 -0.37916,0.706375 -0.35259,-1.384817 -0.76134,-2.755529 -1.22447,-4.107675 0.0773,0.03095 0.15452,0.06211 0.23176,0.09348 z m 1.21616,4.126032 c 0.15332,0.130494 0.30618,0.262222 0.45853,0.395184 0.0912,0.377683 0.17828,0.756355 0.26119,1.135929 -0.0394,0.0666 -0.0789,0.133053 -0.11861,0.199361 0.0446,0.207258 0.0879,0.41478 0.13,0.622553 0.0644,0.04227 0.12875,0.08472 0.19305,0.127349 0.0612,0.308494 0.11962,0.617525 0.17529,0.927049 -0.14367,0.226159 -0.28878,0.450513 -0.4353,0.673038 -0.23855,-1.408565 -0.535,-2.807486 -0.8876,-4.192302 0.0745,0.03707 0.149,0.07435 0.22345,0.111839 z m 0.87769,4.210105 c 0.14215,0.142527 0.28372,0.286262 0.4247,0.431205 0.0601,0.383828 0.11586,0.768322 0.16737,1.153394 -0.0447,0.06314 -0.0896,0.126122 -0.13454,0.188946 0.0274,0.210196 0.0536,0.42056 0.0784,0.631078 0.0607,0.04742 0.12133,0.09502 0.1819,0.142798 0.0356,0.312485 0.0683,0.625295 0.0983,0.938385 -0.16186,0.213529 -0.32504,0.425109 -0.48951,0.634717 -0.12097,-1.423391 -0.30161,-2.8416 -0.54015,-4.250165 0.0712,0.04301 0.14241,0.08622 0.21354,0.129642 z m 0.52868,4.267414 c 0.12985,0.153825 0.25901,0.308834 0.38747,0.465024 0.028,0.387572 0.0516,0.775486 0.0707,1.163655 -0.0499,0.0592 -0.0998,0.118231 -0.14991,0.177092 0.01,0.211821 0.0182,0.423712 0.0253,0.635661 0.0565,0.05237 0.11298,0.104916 0.16934,0.157642 0.009,0.31453 0.0156,0.629175 0.019,0.943888 -0.1794,0.199236 -0.35999,0.39638 -0.54176,0.591408 1.1e-4,-1.429296 -0.0612,-2.85787 -0.18217,-4.281261 0.0674,0.04876 0.13478,0.09772 0.20207,0.146891 z"
       inkscape:path-effect="#path-effect1172"
       inkscape:original-d="m 117.89693,68.35788 c 0,28.796409 -23.163458,52.0861 -52.013526,52.0861 -28.850071,0 -52.237671,-23.344116 -52.237664,-52.140524 0,-28.796408 23.387597,-52.140509 52.237664,-52.140511 28.850064,4e-6 52.013526,23.398528 52.013526,52.194935 z"
       sodipodi:nodetypes="sssss" />
    <text
       transform="translate(0.52916667,0.52916667)"
       y="0.31166893"
       x="-0.1141974"
       id="text1060"
       style="font-style:normal;font-weight:normal;font-size:10.5833px;line-height:1.25;font-family:sans-serif;letter-spacing:0.672042px;word-spacing:0px;fill:#000000;fill-opacity:1;stroke:none;stroke-width:0.264583"
       xml:space="preserve"><textPath
         style="fill:#000000;fill-opacity:1"
         id="textPath1070"
         xlink:href="#path1068"><tspan
           id="tspan1058"
           style="font-style:normal;font-variant:normal;font-weight:normal;font-stretch:normal;font-size:10.5833px;font-family:'Dolce Vita Light';-inkscape-font-specification:'Dolce Vita Light, Normal';font-variant-ligatures:normal;font-variant-caps:normal;font-variant-numeric:normal;font-variant-east-asian:normal;fill:#000000;fill-opacity:1;stroke-width:0.264583">   Le vlo dans le sang</tspan></textPath></text>
    <path
       sodipodi:nodetypes="cc"
       id="path1068"
       d="m 14.628285,103.59362 c 29.386723,36.23939 77.196953,37.31744 101.119095,-2.08274"
       style="font-variation-settings:normal;opacity:1;vector-effect:none;fill:none;fill-opacity:1;stroke:none;stroke-width:0.249244;stroke-linecap:butt;stroke-linejoin:miter;stroke-miterlimit:4;stroke-dasharray:none;stroke-dashoffset:0;stroke-opacity:1;stop-color:#000000;stop-opacity:1" />
  </g>
</svg>
